<svg xmlns="http://www.w3.org/2000/svg" version="1.1" xmlns:xlink="http://www.w3.org/1999/xlink" xmlns:svgjs="http://svgjs.com/svgjs" width="512" height="512" x="0" y="0" viewBox="0 0 1707 1707" style="enable-background:new 0 0 512 512" xml:space="preserve"><g><g id="Layer_x0020_1"><g id="_277831832"><g><path d="m646 701c-1 0-3 0-4 0-12-2-40-16-56-96-6-28-5-47-4-61 1-19 1-22-32-42-5-3-8-8-9-13-1-6 0-12 3-16 6-7 130-165 283-165 54 0 106 21 152 61 63-3 110 34 132 100 22 71 9 174-47 214-6 4-14 5-20 2-7-4-11-10-12-18 0-1-8-150-81-165-12 14-53 36-222 58-8 1-71 13-63 120 0 6-2 12-7 16-4 4-8 5-13 5zm-56-220c30 22 33 37 32 65-1 12-2 27 3 51 2 7 3 14 5 20 19-87 93-96 94-96 149-20 186-38 195-44 0-2 1-4 2-6 4-7 10-11 18-11 86 0 116 96 128 157 16-37 20-91 6-136-11-33-34-72-86-72-4 0-9 0-13 1-6 0-11-2-16-6-40-37-84-56-131-56-106 0-202 94-237 133z" fill="#1a1a1a" data-original="#1a1a1a"></path></g><g><path d="m848 933c-115 0-205-130-222-250-11-148 97-162 98-162 149-20 186-38 195-44 0-2 1-4 2-6 4-7 10-11 18-11 123 0 133 197 133 206 1 1 0 1 0 2-11 128-104 265-224 265zm103-431c-12 14-53 36-222 58-7 1-71 13-63 119 14 103 91 214 182 214 93 0 174-119 184-227-1-14-12-149-81-164z" fill="#1a1a1a" data-original="#1a1a1a"></path></g><g><path d="m715 998c-1 0-3 0-5 0-11-3-17-14-14-25l29-108c3-11 14-17 24-14 11 3 17 14 15 24l-29 109c-3 9-11 14-20 14z" fill="#1a1a1a" data-original="#1a1a1a"></path></g><g><path d="m984 998c-9 0-17-5-19-14l-30-111c-3-10 4-21 14-24 11-3 22 3 25 14l29 110c3 11-3 22-14 25-1 0-3 0-5 0z" fill="#1a1a1a" data-original="#1a1a1a"></path></g><g><path d="m1202 1402h-698c-11 0-20-9-20-20v-193c0-127 104-231 231-231h7c6 0 11 3 15 6l116 117 117-117c4-3 9-6 14-6h7c128 0 231 104 231 231v193c0 11-9 20-20 20zm-678-40h658v-173c0-105-85-190-190-191l-125 125c-7 8-20 8-28 0l-125-125c-105 1-190 86-190 191z" fill="#1a1a1a" data-original="#1a1a1a"></path></g><g><path d="m1236 631c-1 0-2 0-3-1-11-2-35-14-49-80-4-24-4-39-3-50 0-15 0-16-24-31-5-3-8-8-9-14-2-5 0-11 3-15 5-6 107-135 232-135 45 0 86 16 124 49 52-2 92 29 109 83 19 59 8 145-39 178-6 4-14 5-20 2-7-3-11-10-12-17 0-2-6-116-60-130-12 12-49 29-181 47-5 0-54 9-48 92 1 6-2 13-6 17-4 3-9 5-14 5zm237-203c67 0 94 67 105 117 9-28 10-64 0-95-8-26-26-56-66-56-3 0-6 0-9 1-6 0-12-2-16-6-32-29-67-44-104-44-82 0-156 70-186 103 21 16 25 30 24 53-1 10-1 22 2 41 1 0 1 1 1 1 20-59 75-66 75-66 115-15 147-29 155-34 1-2 1-3 2-4 3-7 10-11 17-11z" fill="#1a1a1a" data-original="#1a1a1a"></path></g><g><path d="m1400 818c-95 0-170-106-183-205-10-124 81-136 82-136 115-15 147-29 155-34 1-2 1-3 2-4 3-7 10-11 17-11 104 0 112 163 112 170v3c-9 105-86 217-185 217zm85-348c-12 12-49 29-181 47-5 0-54 9-48 92 12 81 72 169 144 169 74 0 137-94 145-180 0-12-9-115-60-128z" fill="#1a1a1a" data-original="#1a1a1a"></path></g><g><path d="m1293 871c-2 0-4 0-6-1-10-2-17-13-14-24l24-88c3-10 14-17 24-14 11 3 17 14 14 25l-23 87c-3 9-11 15-19 15z" fill="#1a1a1a" data-original="#1a1a1a"></path></g><g><path d="m1510 871c-9 0-17-6-19-15l-24-89c-3-11 3-22 14-25 11-2 22 4 25 15l24 89c2 11-4 22-15 24-1 1-3 1-5 1z" fill="#1a1a1a" data-original="#1a1a1a"></path></g><g><path d="m1687 1197h-485c-11 0-19-8-20-18-3-55-29-105-72-139-5-4-8-10-8-16v-2c0-105 85-191 191-191h5c6 0 11 2 15 6l91 92 92-92c4-4 9-6 14-6h6c105 0 191 86 191 191v155c0 11-9 20-20 20zm-467-40h447v-135c0-83-67-150-149-151l-100 100c-7 8-20 8-28 0l-100-100c-79 1-144 65-148 144 43 37 70 87 78 142z" fill="#1a1a1a" data-original="#1a1a1a"></path></g><g><path d="m134 631c-1 0-2 0-3-1-11-2-35-14-49-80-4-24-4-39-3-50 0-15 0-16-24-31-5-3-8-8-9-14-1-5 0-11 3-15 5-6 107-135 232-135 45 0 86 16 124 49 52-2 92 29 109 83 19 59 8 145-39 178-6 4-14 5-20 2-7-3-11-10-11-17-1-2-7-116-61-130-12 12-49 29-181 47-5 0-54 9-48 92 1 6-2 13-6 17-4 3-9 5-14 5zm237-203c67 0 94 67 105 117 9-28 10-64 0-95-8-26-26-56-66-56-3 0-6 0-9 1-6 0-12-2-16-6-32-29-67-44-104-44-82 0-156 70-186 103 21 16 25 30 24 53-1 10-1 22 3 41v1c21-59 75-66 75-66 115-15 147-29 155-34 1-2 1-3 2-4 3-7 10-11 17-11z" fill="#1a1a1a" data-original="#1a1a1a"></path></g><g><path d="m298 818c-95 0-170-106-183-205-10-124 82-136 82-136 115-15 147-29 155-34 1-2 1-3 2-4 3-7 10-11 17-11 104 0 112 163 112 170 1 1 1 2 0 3-9 105-86 217-185 217zm85-348c-12 12-49 29-181 47-5 0-54 9-48 92 12 81 72 169 144 169 74 0 137-94 145-180 0-12-9-115-60-128z" fill="#1a1a1a" data-original="#1a1a1a"></path></g><g><path d="m191 871c-2 0-4 0-6-1-10-2-17-13-14-24l24-88c3-10 14-17 24-14 11 3 17 14 14 25l-23 87c-2 9-11 15-19 15z" fill="#1a1a1a" data-original="#1a1a1a"></path></g><g><path d="m408 871c-9 0-17-6-19-15l-24-89c-3-11 3-22 14-25 11-2 22 4 25 15l24 89c2 11-4 22-15 24-1 1-3 1-5 1z" fill="#1a1a1a" data-original="#1a1a1a"></path></g><g><path d="m505 1197h-485c-11 0-20-9-20-20v-155c0-105 86-191 191-191h5c6 0 11 2 15 6l91 92 92-92c4-4 9-6 14-6h6c105 0 191 86 191 191v2c0 6-3 12-8 16-43 34-69 84-72 139-1 10-10 18-20 18zm-465-40h447c7-55 35-105 78-142-4-79-69-143-149-144l-100 100c-7 8-20 8-28 0l-100-100c-82 1-148 68-148 151z" fill="#1a1a1a" data-original="#1a1a1a"></path></g><g><g><path d="m644 1402c-11 0-20-9-20-20v-155c0-11 9-20 20-20s20 9 20 20v155c0 11-9 20-20 20z" fill="#1a1a1a" data-original="#1a1a1a"></path></g><g><path d="m1063 1402c-11 0-20-9-20-20v-155c0-11 9-20 20-20s20 9 20 20v155c0 11-9 20-20 20z" fill="#1a1a1a" data-original="#1a1a1a"></path></g></g><g><g><path d="m891 1224h-66c-12 0-20-9-20-20s8-20 20-20h66c11 0 20 9 20 20s-9 20-20 20z" fill="#1a1a1a" data-original="#1a1a1a"></path></g><g><path d="m891 1307h-66c-12 0-20-9-20-20s8-20 20-20h66c11 0 20 9 20 20s-9 20-20 20z" fill="#1a1a1a" data-original="#1a1a1a"></path></g></g></g><path d="m825 1267h66c11 0 20 9 20 20s-9 20-20 20h-66c-12 0-20-9-20-20s8-20 20-20zm0-43c-12 0-20-9-20-20s8-20 20-20h66c11 0 20 9 20 20s-9 20-20 20zm-161 138h379v-135c0-11 9-20 20-20s20 9 20 20v135h99v-173c0-3 0-7 0-10-3-55-29-105-72-139-1-1-2-1-2-2-32-25-72-39-116-40l-125 125c-7 8-20 8-28 0l-125-125c-43 1-83 15-115 40-1 1-1 1-2 2-43 34-69 84-72 139-1 4-1 7-1 10v173h100v-135c0-11 9-20 20-20s20 9 20 20z" fill="#01E45C" data-original="#ade398"></path><path d="m1220 1157h447v-135c0-83-67-150-149-151l-100 100c-7 8-20 8-28 0l-100-100c-79 1-144 65-148 144 42 35 70 86 78 142z" fill="#ef434d" data-original="#ef737d"></path><path d="m487 1157c7-56 36-107 78-142-4-79-69-143-149-144l-100 100c-7 8-20 8-28 0l-100-100c-82 1-148 68-148 151v135z" fill="#ef434d" data-original="#ef737d"></path><path d="m302 929 84-84-13-49c-23 14-48 22-75 22-26 0-50-8-72-21l-12 43z" fill="#ffcebf" data-original="#ffcebf"></path><path d="m298 778c74 0 137-94 145-180 0-2 0-9-2-19-4-33-18-99-58-109-12 12-49 29-181 47-5 0-54 9-48 92 8 51 34 105 71 138 2 1 3 2 4 3 21 17 44 28 69 28z" fill="#ffcebf" data-original="#ffcebf"></path><path d="m197 477c115-15 147-29 155-34 1-2 1-3 2-4 3-7 10-11 17-11 8 0 14 1 21 2 52 13 74 71 84 115 9-28 10-64 0-95-8-26-26-56-66-56-3 0-6 0-9 1-6 0-12-2-16-6-32-29-67-44-104-44-82 0-156 70-186 103 21 16 25 30 24 53-1 10-1 22 3 41v1c20-58 72-66 75-66z" fill="#724b2c" data-original="#724b2c"></path><g fill="#ffcebf"><path d="m848 933c-33 0-64-11-92-29l-17 63 114 114 109-109-19-69c-28 19-60 30-95 30z" fill="#ffcebf" data-original="#ffcebf"></path><path d="m1316 840 88 89 84-84-13-49c-23 14-48 22-75 22-26 0-50-8-72-21z" fill="#ffcebf" data-original="#ffcebf"></path><path d="m1331 750c21 17 44 28 69 28 74 0 137-94 145-180 0-3-1-13-3-26-5-35-20-92-57-102-12 12-49 29-181 47-5 0-54 9-48 92 8 51 34 105 71 138 2 1 3 2 4 3z" fill="#ffcebf" data-original="#ffcebf"></path></g><path d="m1299 477c115-15 147-29 155-34 1-2 1-3 2-4 3-7 10-11 17-11 9 0 17 1 25 4 49 14 70 70 80 113 9-28 10-64 0-95-8-26-26-56-66-56-3 0-6 0-9 1-6 0-12-2-16-6-32-29-67-44-104-44-82 0-156 70-186 103 21 16 25 30 24 53-1 10-1 22 2 41l1 1c20-59 75-66 75-66z" fill="#724b2c" data-original="#724b2c"></path><path d="m1073 481c-11-33-34-72-86-72-4 0-9 0-13 1-6 0-11-2-16-6-40-37-84-56-131-56-106 0-202 94-237 133 30 22 33 37 32 65-1 12-2 27 3 51 2 7 3 14 5 20 19-87 93-96 94-96 149-20 186-38 195-44 0-2 1-4 2-6 4-7 10-11 18-11 86 0 116 96 128 157 16-37 20-91 6-136z" fill="#623715" data-original="#623715"></path><path d="m1032 666c-1-14-12-149-81-164-12 14-53 36-222 58-4 1-19 4-34 17-17 15-33 45-29 102 9 65 43 133 90 175 1 0 2 1 3 2 26 23 57 37 89 37 93 0 174-119 184-227z" fill="#ffcebf" data-original="#ffcebf"></path></g></g></svg>