<svg xmlns="http://www.w3.org/2000/svg" version="1.1" xmlns:xlink="http://www.w3.org/1999/xlink" xmlns:svgjs="http://svgjs.com/svgjs" width="512" height="512" x="0" y="0" viewBox="0 0 512 512" style="enable-background:new 0 0 512 512" xml:space="preserve" class=""><g><g fill-rule="evenodd"><path d="m402.66 221.842v-203.733a7.926 7.926 0 0 0 -7.93-7.93h-96.679a7.925 7.925 0 0 0 -7.93 7.93v68.36h-88.75a7.925 7.925 0 0 0 -7.93 7.929v91.172h-88.764a7.929 7.929 0 0 0 -7.923 7.93v53.6h-88.754a7.924 7.924 0 0 0 -7.923 7.93v163.315a7.929 7.929 0 0 0 7.923 7.93h236.581l.02.038a142.053 142.053 0 0 0 125.416 75.565c78.253 0 141.911-63.658 141.911-141.911a142.154 142.154 0 0 0 -109.213-138.112zm93.34 138.125a125.258 125.258 0 0 1 -22.384 71.588v-21.7c0-17.926-13.138-31.722-36.058-37.866a268.637 268.637 0 0 0 -135.088 0c-22.927 6.144-36.073 19.94-36.073 37.866v21.684a125.964 125.964 0 1 1 229.603-71.572zm-78.13-51.648a46.8 46.8 0 1 1 -46.8-46.8 46.865 46.865 0 0 1 46.8 46.8z" fill="#01e45c" data-original="#9c27b0" class=""></path><path d="m371.066 339.126a30.8 30.8 0 1 1 30.807-30.807 30.843 30.843 0 0 1 -30.807 30.807zm0-77.611a46.808 46.808 0 1 0 46.8 46.8 46.864 46.864 0 0 0 -46.8-46.8zm102.552 170.04a125.987 125.987 0 1 0 -207.219-.021v-21.684c0-17.926 13.146-31.722 36.073-37.866a268.637 268.637 0 0 1 135.088 0c22.92 6.144 36.058 19.94 36.058 37.866v21.7zm-146.918 46.725v-55.941a8 8 0 1 0 -16 0v48.739a126.542 126.542 0 0 1 -28.3-20.678v-40.55c0-13.16 13.16-19.454 24.212-22.412a241.258 241.258 0 0 1 62.429-8.081h1a242.466 242.466 0 0 1 63.372 8.081c11.053 2.958 24.213 9.252 24.213 22.412v40.559a126.135 126.135 0 0 1 -28.307 20.676v-48.746a8 8 0 1 0 -16 0v55.941a126.176 126.176 0 0 1 -86.62 0zm-117.328-67.93v-307.95h80.675v140.3a141.893 141.893 0 0 0 -52.769 167.65zm-193.372-147.32h80.681v147.32h-80.681zm177.368-61.53v208.85h-80.69v-208.85zm193.359-175.389v192.859a141.667 141.667 0 0 0 -80.676 14.253v-207.112zm16 195.674v-203.676a8 8 0 0 0 -8-8h-96.68a8 8 0 0 0 -8 8v68.291h-88.677a8 8 0 0 0 -8 8v91.1h-88.694a8 8 0 0 0 -8 8v53.527h-88.676a8 8 0 0 0 -7.995 8v163.318a8 8 0 0 0 8 8h236.54a142.113 142.113 0 0 0 125.479 75.6c78.3 0 141.983-63.693 141.983-141.983-.007-67.032-46.698-123.362-109.277-138.177z" fill="#000000" data-original="#000000" class=""></path></g></g></svg>