<svg width="25" height="25" viewBox="0 0 14 14" fill="none" xmlns="http://www.w3.org/2000/svg">
<g clip-path="url(#clip0_185_291)">
<path d="M13.8752 10.1308C13.8376 10.0678 13.6048 9.56205 12.4847 8.52247C11.3122 7.43389 11.4697 7.61065 12.882 5.72838C13.7422 4.58205 14.0861 3.882 13.9785 3.58272C13.8761 3.29745 13.2434 3.37271 13.2434 3.37271L11.1398 3.38496C11.1398 3.38496 10.984 3.36396 10.8676 3.43309C10.7547 3.50134 10.6821 3.65885 10.6821 3.65885C10.6821 3.65885 10.3487 4.54617 9.90418 5.30048C8.96698 6.89222 8.59158 6.97623 8.43845 6.87735C8.08229 6.6472 8.17155 5.95153 8.17155 5.45799C8.17155 3.91525 8.40519 3.27208 7.71564 3.10581C7.48637 3.05068 7.31836 3.01393 6.73294 3.00781C5.98214 2.99993 5.34597 3.01043 4.98631 3.18632C4.74655 3.30358 4.56191 3.56522 4.67479 3.5801C4.81393 3.59848 5.12895 3.66498 5.29609 3.8925C5.51223 4.18564 5.50435 4.84544 5.50435 4.84544C5.50435 4.84544 5.62861 6.6612 5.21471 6.88697C4.93031 7.04186 4.54091 6.72596 3.70522 5.28123C3.27731 4.5418 2.95354 3.72361 2.95354 3.72361C2.95354 3.72361 2.89141 3.57135 2.78028 3.48997C2.64552 3.39108 2.4565 3.35958 2.4565 3.35958L0.456104 3.37183C0.456104 3.37183 0.155957 3.38058 0.0456987 3.51097C-0.0523085 3.62735 0.0378231 3.86712 0.0378231 3.86712C0.0378231 3.86712 1.60419 7.53102 3.37707 9.37828C5.00382 11.0715 6.8502 10.9604 6.8502 10.9604H7.68676C7.68676 10.9604 7.93966 10.9324 8.06829 10.7933C8.1873 10.6655 8.18293 10.4257 8.18293 10.4257C8.18293 10.4257 8.1663 9.30303 8.68784 9.13764C9.2015 8.97488 9.8613 10.2227 10.5605 10.7031C11.089 11.0663 11.4907 10.9867 11.4907 10.9867L13.3607 10.9604C13.3607 10.9604 14.339 10.9 13.8752 10.1308Z" fill="white"/>
</g>
<defs>
<clipPath id="clip0_185_291">
<rect width="14" height="14" fill="white"/>
</clipPath>
</defs>
</svg>
