<svg width="150" height="150" viewBox="0 0 70 70" fill="none" xmlns="http://www.w3.org/2000/svg">
<path d="M58.8126 0.507202H11.1875C5.29845 0.507202 0.507324 5.29833 0.507324 11.1874V58.8126C0.507324 64.7016 5.29845 69.4927 11.1875 69.4927H58.8127C64.7017 69.4927 69.4928 64.7016 69.4928 58.8125V11.1874C69.4928 5.29833 64.7017 0.507202 58.8126 0.507202ZM65.4507 58.8125C65.4507 62.4728 62.4729 65.4506 58.8126 65.4506H11.1875C7.52727 65.4506 4.54944 62.4728 4.54944 58.8125V21.8675H65.4507V58.8125ZM65.4507 17.8254H4.54944V11.1874C4.54944 7.52715 7.52727 4.54932 11.1875 4.54932H58.8127C62.4729 4.54932 65.4507 7.52715 65.4507 11.1874V17.8254Z" fill="#01E45C"/>
<path fill-rule="evenodd" clip-rule="evenodd" d="M11.1875 0H58.8125C64.9818 0 70 5.01823 70 11.1875V58.8125C70 64.9818 64.9818 70 58.8127 70H11.1875C5.01823 70 0 64.9818 0 58.8127V11.1875C0 5.01823 5.01823 0 11.1875 0ZM58.8125 64.9434C62.1927 64.9434 64.9434 62.1927 64.9434 58.8125V22.3748H5.05661V58.8125C5.05661 62.1927 7.80734 64.9434 11.1875 64.9434H58.8125ZM5.05661 17.3182H64.9434V11.1875C64.9434 7.80733 62.1927 5.05661 58.8127 5.05661H11.1875C7.80734 5.05661 5.05661 7.80734 5.05661 11.1875V17.3182ZM11.1875 0.507246H58.8125C64.7016 0.507246 69.4928 5.29837 69.4928 11.1875V58.8125C69.4928 64.7016 64.7016 69.4928 58.8127 69.4928H11.1875C5.29837 69.4928 0.507246 64.7016 0.507246 58.8127V11.1875C0.507246 5.29837 5.29837 0.507246 11.1875 0.507246ZM58.8125 65.4506C62.4728 65.4506 65.4506 62.4728 65.4506 58.8125V21.8676H4.54937V58.8125C4.54937 62.4728 7.5272 65.4506 11.1875 65.4506H58.8125ZM65.4506 17.8254V11.1875C65.4506 7.5272 62.4728 4.54937 58.8127 4.54937H11.1875C7.5272 4.54937 4.54937 7.5272 4.54937 11.1875V17.8254H65.4506Z" fill="#01E45C"/>
<path d="M13.3521 9.16638H11.1874C8.50993 9.26514 8.50966 13.1096 11.1874 13.2085H13.3521C16.0296 13.1096 16.0299 9.26528 13.3521 9.16638Z" fill="#01E45C"/>
<path fill-rule="evenodd" clip-rule="evenodd" d="M13.3614 8.65906L13.3708 8.6594C16.7006 8.78238 16.699 13.5924 13.3708 13.7153L13.3614 13.7157H11.178L11.1686 13.7153C7.83927 13.5924 7.83997 8.78218 11.1686 8.6594L11.178 8.65906H13.3614ZM11.1873 13.2084C8.50958 13.1095 8.50985 9.26507 11.1873 9.1663H13.352C16.0298 9.2652 16.0295 13.1095 13.352 13.2084H11.1873Z" fill="#01E45C"/>
<path d="M23.0939 9.16638H20.9291C18.2516 9.26514 18.2514 13.1096 20.9291 13.2085H23.0939C25.7713 13.1096 25.7717 9.26528 23.0939 9.16638Z" fill="#01E45C"/>
<path fill-rule="evenodd" clip-rule="evenodd" d="M23.1032 8.65906L23.1126 8.6594C26.4427 8.78239 26.4403 13.5924 23.1126 13.7153L23.1032 13.7157H20.9197L20.9103 13.7153C17.581 13.5924 17.5817 8.78218 20.9103 8.6594L20.9197 8.65906H23.1032ZM20.929 13.2084C18.2513 13.1095 18.2515 9.26507 20.929 9.1663H23.0939C25.7716 9.2652 25.7712 13.1095 23.0939 13.2084H20.929Z" fill="#01E45C"/>
<path d="M32.8352 9.16638H30.6703C27.9928 9.26514 27.9926 13.1096 30.6703 13.2085H32.8352C35.5125 13.1096 35.5129 9.26528 32.8352 9.16638Z" fill="#01E45C"/>
<path fill-rule="evenodd" clip-rule="evenodd" d="M32.8444 8.65906L32.8538 8.6594C36.1839 8.78239 36.1815 13.5924 32.8538 13.7153L32.8444 13.7157H30.6609L30.6515 13.7153C27.3222 13.5924 27.3229 8.78218 30.6516 8.6594L30.6609 8.65906H32.8444ZM30.6703 13.2084C27.9925 13.1095 27.9928 9.26507 30.6703 9.1663H32.8351C35.5129 9.2652 35.5124 13.1095 32.8351 13.2084H30.6703Z" fill="#01E45C"/>
<path d="M33.1818 43.5949C34.1843 42.5927 35.816 42.5927 36.8186 43.5949C37.608 44.384 38.8879 44.3835 39.6768 43.594C40.4658 42.8046 40.4655 41.5249 39.676 40.7359C37.0978 38.159 32.9026 38.159 30.3244 40.7359C28.5007 42.6987 31.2174 45.4178 33.1818 43.5949Z" fill="#01E45C"/>
<path fill-rule="evenodd" clip-rule="evenodd" d="M30.3241 40.7359C32.9023 38.1591 37.0975 38.1591 39.6757 40.7359C40.4653 41.5249 40.4655 42.8047 39.6765 43.5941C38.8876 44.3835 37.6077 44.3841 36.8183 43.5949C35.8157 42.5927 34.1841 42.5927 33.1815 43.5949C31.2172 45.4179 28.5004 42.6988 30.3241 40.7359ZM36.4597 43.9536C35.6552 43.1495 34.3446 43.1495 33.5401 43.9536L33.1815 43.5949L33.5265 43.9667C31.0834 46.2341 27.6862 42.8299 29.9525 40.3906L29.9589 40.3838L29.9655 40.3771C32.7418 37.6023 37.258 37.6023 40.0342 40.3771C41.022 41.3642 41.0223 42.9651 40.0353 43.9527C39.0484 44.9402 37.4473 44.9409 36.4597 43.9536Z" fill="#01E45C"/>
<path d="M50.1534 37.0211C51.2695 37.0211 52.1744 36.1162 52.1744 35.0001V32.8353C52.0757 30.1578 48.2312 30.1575 48.1323 32.8353V35.0001C48.1323 36.1162 49.0372 37.0211 50.1534 37.0211Z" fill="#01E45C"/>
<path fill-rule="evenodd" clip-rule="evenodd" d="M52.6816 32.8258V35C52.6816 36.3963 51.5496 37.5283 50.1533 37.5283C48.757 37.5283 47.625 36.3963 47.625 35V32.8258L47.6253 32.8165C47.7483 29.4871 52.5585 29.4878 52.6813 32.8165L52.6816 32.8258ZM48.1322 32.8352C48.2311 30.1574 52.0756 30.1577 52.1744 32.8352V35C52.1744 36.1162 51.2695 37.0211 50.1533 37.0211C49.0371 37.0211 48.1322 36.1162 48.1322 35V32.8352Z" fill="#01E45C"/>
<path d="M19.8467 37.0211C20.9629 37.0211 21.8678 36.1162 21.8678 35.0001V32.8353C21.769 30.1578 17.9246 30.1575 17.8257 32.8353V35.0001C17.8257 36.1162 18.7306 37.0211 19.8467 37.0211Z" fill="#01E45C"/>
<path fill-rule="evenodd" clip-rule="evenodd" d="M22.375 32.8258V35C22.375 36.3963 21.243 37.5283 19.8467 37.5283C18.4504 37.5283 17.3184 36.3963 17.3184 35V32.8258L17.3187 32.8165C17.4417 29.4871 22.2518 29.4878 22.3746 32.8165L22.375 32.8258ZM17.8256 32.8352C17.9245 30.1574 21.769 30.1577 21.8677 32.8352V35C21.8677 36.1162 20.9628 37.0211 19.8467 37.0211C18.7305 37.0211 17.8256 36.1162 17.8256 35V32.8352Z" fill="#01E45C"/>
</svg>
